<?xml version="1.0" encoding="UTF-8" standalone="no"?>
<!DOCTYPE svg PUBLIC "-//W3C//DTD SVG 1.1//EN" "http://www.w3.org/Graphics/SVG/1.1/DTD/svg11.dtd">
<svg width="100%" height="100%" viewBox="0 0 6768 1296" version="1.1" xmlns="http://www.w3.org/2000/svg" xmlns:xlink="http://www.w3.org/1999/xlink" xml:space="preserve" xmlns:serif="http://www.serif.com/" style="fill-rule:evenodd;clip-rule:evenodd;stroke-linejoin:round;stroke-miterlimit:2;">
    <path d="M5472,828l0,-828l1296,0l0,396l-648,0l-0,72l648,0l-0,828l-1296,0l-0,-396l648,0l-0,-72l-648,0Z" style="fill:currentColor;"/>
    <path d="M4104,1296l0,-1296l1092.35,0l203.647,203.647l0,1092.35l-1296,0Zm684,-396l0,-504l-72,0l0,504l72,0Z" style="fill:currentColor;"/>
    <path d="M2736,1296l0,-1296l1296,0l-0,1296l-612,0l-0,-396l-72,0l-0,396l-612,0Zm612,-900l-0,252l72,0l-0,-252l-72,0Z" style="fill:currentColor;"/>
    <path d="M2664,900l-0,396l-1296,0l-0,-1296l1296,0l-0,396l-648,0l-0,72l648,0l-0,360l-648,0l-0,72l648,0Z" style="fill:currentColor;"/>
    <path d="M0,1296l0,-1296l612,-0l-0,396l72,0l-0,-396l612,-0l-0,1296l-612,0l-0,-396l-72,0l-0,396l-612,0Z" style="fill:currentColor;"/>
</svg>
